
<!-- .icon-twitter -->
<svg xmlns="http://www.w3.org/2000/svg" width="20" height="20" viewBox="0 0 24 24" fill="none" stroke="currentColor" style="stroke:rgba(14,17,21,.5);" stroke-width="2" stroke-linecap="round" stroke-linejoin="round"><path d="M23 3a10.9 10.9 0 0 1-3.14 1.53 4.48 4.48 0 0 0-7.86 3v1A10.66 10.66 0 0 1 3 4s-4 9 5 13a11.64 11.64 0 0 1-7 2c9 5 20 0 20-11.5a4.5 4.5 0 0 0-.08-.83A7.72 7.72 0 0 0 23 3z"></path></svg>

<!-- .icon-github -->
<svg xmlns="http://www.w3.org/2000/svg" width="20" height="20" viewBox="0 0 24 24" fill="none" stroke="currentColor" style="stroke:rgba(14,17,21,.5)" stroke-width="2" stroke-linecap="round" stroke-linejoin="round"><path d="M9 19c-5 1.5-5-2.5-7-3m14 6v-3.87a3.37 3.37 0 0 0-.94-2.61c3.14-.35 6.44-1.54 6.44-7A5.44 5.44 0 0 0 20 4.77 5.07 5.07 0 0 0 19.91 1S18.73.65 16 2.48a13.38 13.38 0 0 0-7 0C6.27.65 5.09 1 5.09 1A5.07 5.07 0 0 0 5 4.77a5.44 5.44 0 0 0-1.5 3.78c0 5.42 3.3 6.61 6.44 7A3.37 3.37 0 0 0 9 18.13V22"></path></svg>

<!-- .icon-feed -->
<svg xmlns="http://www.w3.org/2000/svg" width="20" height="20" viewBox="0 0 24 24" fill="none" stroke="currentColor" style="stroke:rgba(14,17,21,.5)" stroke-width="2.2" stroke-linecap="round" stroke-linejoin="round"><path d="m 3.2,12.4 a 10,12 0 0 1 7.8,8.4 M 3.2,4.8 A 18,19 0 0 1 19,20.7 M 3.2,-5.2"/><line x1="3.2" y1="20.1" x2="3.8" y2="20.7"/></svg>

<!-- .icon-published-date -->
<svg xmlns="http://www.w3.org/2000/svg" width="16" height="16" viewBox="0 0 24 24" fill="none" stroke="currentColor" style="stroke:rgba(14,17,21,.5);" stroke-width="2" stroke-linecap="round" stroke-linejoin="round" class="feather feather-calendar"><rect x="3" y="4" width="18" height="18" rx="2" ry="2"></rect><line x1="16" y1="2" x2="16" y2="6"></line><line x1="8" y1="2" x2="8" y2="6"></line><line x1="3" y1="10" x2="21" y2="10"></line></svg>

<!-- .icon-reading-time -->
<svg xmlns="http://www.w3.org/2000/svg" width="16" height="16" viewBox="0 0 24 24" fill="none" stroke="currentColor" style="stroke:rgba(14,17,21,.5);" stroke-width="2" stroke-linecap="round" stroke-linejoin="round" class="feather feather-clock"><circle cx="12" cy="12" r="10"></circle><polyline points="12 6 12 12 15 15"></polyline></svg>

<!-- .icon-medium -->
<svg xmlns="http://www.w3.org/2000/svg" width="16" height="16" viewBox="0 0 24 24" fill="none" stroke="currentColor" style="stroke:rgba(14,17,21,.5);" stroke-width="2" stroke-linecap="round" stroke-linejoin="round" class="feather feather-type"><polyline points="4 7 4 4 20 4 20 7"></polyline><line x1="9" y1="20" x2="15" y2="20"></line><line x1="12" y1="4" x2="12" y2="20"></line></svg>

<!-- .icon-hn -->
<svg xmlns="http://www.w3.org/2000/svg" width="16" height="16" viewBox="0 0 24 24" fill="none" stroke="currentColor" style="stroke:rgba(14,17,21,.5);" stroke-width="2" stroke-linecap="round" stroke-linejoin="round" class="feather feather-message-circle"><path d="M21 11.5a8.38 8.38 0 0 1-.9 3.8 8.5 8.5 0 0 1-7.6 4.7 8.38 8.38 0 0 1-3.8-.9L3 21l1.9-5.7a8.38 8.38 0 0 1-.9-3.8 8.5 8.5 0 0 1 4.7-7.6 8.38 8.38 0 0 1 3.8-.9h.5a8.48 8.48 0 0 1 8 8v.5z"></path></svg>

<!-- .icon-external-link -->
<svg xmlns="http://www.w3.org/2000/svg" width="16" height="16" viewBox="0 0 24 24" fill="none" stroke="currentColor" style="stroke:rgba(14,17,21,.5);" stroke-width="2" stroke-linecap="round" stroke-linejoin="round" class="feather feather-external-link"><path d="M18 13v6a2 2 0 0 1-2 2H5a2 2 0 0 1-2-2V8a2 2 0 0 1 2-2h6"></path><polyline points="15 3 21 3 21 9"></polyline><line x1="10" y1="14" x2="21" y2="3"></line></svg>
