<?xml version="1.0" standalone="no"?>
<!DOCTYPE svg PUBLIC "-//W3C//DTD SVG 20010904//EN"
 "http://www.w3.org/TR/2001/REC-SVG-20010904/DTD/svg10.dtd">
<svg version="1.0" xmlns="http://www.w3.org/2000/svg"
 width="260.000000pt" height="260.000000pt" viewBox="0 0 260.000000 260.000000"
 preserveAspectRatio="xMidYMid meet">
<metadata>
Created by potrace 1.11, written by Peter Selinger 2001-2013
</metadata>
<g transform="translate(0.000000,260.000000) scale(0.100000,-0.100000)"
fill="#000000" stroke="none">
<path d="M1947 1882 c-15 -9 -31 -28 -34 -42 -4 -14 -7 -116 -7 -226 l0 -202
-39 40 c-62 64 -115 83 -227 83 -81 0 -102 -4 -145 -25 -105 -52 -184 -164
-204 -289 -8 -51 -7 -166 2 -211 28 -130 101 -229 207 -279 47 -22 69 -26 145
-26 108 0 162 21 224 86 l41 44 0 -38 c0 -75 80 -119 153 -86 52 24 52 22 52
596 l0 535 -33 29 c-38 34 -91 38 -135 11z m-184 -513 c53 -14 102 -62 124
-117 21 -55 24 -186 5 -249 -27 -91 -104 -144 -202 -139 -91 6 -133 36 -172
121 -29 65 -32 198 -5 266 39 101 140 149 250 118z"/>
<path d="M777 1530 c-142 -36 -248 -148 -283 -301 -11 -48 -11 -175 1 -224 38
-159 145 -261 310 -295 144 -30 367 26 418 104 21 31 13 86 -14 109 -28 23
-32 22 -129 -19 -211 -90 -362 -28 -387 159 l-4 27 260 0 c298 0 294 -1 294
80 0 150 -78 281 -200 337 -62 29 -197 40 -266 23z m163 -147 c52 -10 105 -70
117 -131 l10 -52 -189 0 -190 0 7 33 c10 46 45 105 74 124 44 28 110 39 171
26z"/>
</g>
</svg>
