<?xml version="1.0" standalone="no"?>
<!DOCTYPE svg PUBLIC "-//W3C//DTD SVG 20010904//EN"
 "http://www.w3.org/TR/2001/REC-SVG-20010904/DTD/svg10.dtd">
<svg version="1.0" xmlns="http://www.w3.org/2000/svg"
 width="260.000000pt" height="260.000000pt" viewBox="0 0 260.000000 260.000000"
 preserveAspectRatio="xMidYMid meet">
<metadata>
Created by potrace 1.11, written by Peter Selinger 2001-2013
</metadata>
<g transform="translate(0.000000,260.000000) scale(0.100000,-0.100000)"
fill="#000000" stroke="none">
<path d="M2084 1996 c-55 -24 -59 -47 -59 -323 l0 -250 -45 48 c-137 146 -404
145 -560 -3 -197 -186 -191 -599 10 -781 77 -69 155 -100 264 -103 128 -5 207
25 287 107 33 34 47 43 44 30 -6 -32 13 -86 40 -111 16 -15 40 -24 72 -27 55
-4 87 9 117 50 20 27 20 38 21 655 1 506 -2 632 -13 655 -28 58 -109 83 -178
53z m-203 -629 c67 -28 119 -99 135 -182 29 -154 -12 -312 -95 -369 -96 -65
-246 -53 -317 26 -71 77 -97 243 -59 375 22 75 91 146 157 161 54 13 135 8
179 -11z"/>
<path d="M663 1565 c-84 -23 -153 -63 -209 -120 -185 -190 -185 -551 1 -731
151 -146 422 -175 652 -69 101 46 141 121 97 183 -32 46 -62 45 -174 -6 -85
-38 -135 -49 -210 -47 -150 3 -236 83 -254 233 l-3 32 307 0 c371 0 355 -5
354 112 -1 185 -101 337 -261 398 -75 29 -225 36 -300 15z m246 -189 c51 -27
85 -82 100 -163 l8 -43 -228 0 c-257 0 -234 -9 -208 81 16 53 79 120 129 136
45 16 160 9 199 -11z"/>
</g>
</svg>
