<?xml version="1.0" standalone="no"?>
<!DOCTYPE svg PUBLIC "-//W3C//DTD SVG 20010904//EN"
 "http://www.w3.org/TR/2001/REC-SVG-20010904/DTD/svg10.dtd">
<svg version="1.0" xmlns="http://www.w3.org/2000/svg"
 width="260.000000pt" height="260.000000pt" viewBox="0 0 260.000000 260.000000"
 preserveAspectRatio="xMidYMid meet">
<metadata>
Created by potrace 1.11, written by Peter Selinger 2001-2013
</metadata>
<g transform="translate(0.000000,260.000000) scale(0.100000,-0.100000)"
fill="#000000" stroke="none">
<path d="M524 1841 c-2 -2 -4 -247 -4 -543 l0 -538 342 2 343 3 0 78 1 77 -36
1 c-19 0 -127 0 -240 1 l-205 0 1 141 c1 78 2 147 3 154 1 9 38 12 134 12 72
0 157 0 187 0 l55 1 0 75 c0 42 -4 76 -10 76 -5 1 -91 2 -190 3 l-180 1 -1
140 c0 77 3 145 7 150 4 6 92 10 231 9 122 0 228 1 233 3 6 2 10 37 10 81 l0
77 -338 0 c-186 0 -340 -2 -343 -4z"/>
<path d="M1310 1302 l0 -544 273 4 c252 4 277 6 337 27 223 78 352 267 352
517 0 112 -34 236 -84 309 -55 81 -156 158 -248 192 -85 31 -137 36 -392 37
l-238 1 0 -543z m496 374 c89 -17 179 -87 219 -173 26 -54 43 -152 39 -227 -9
-165 -70 -268 -192 -324 -52 -24 -70 -26 -208 -29 l-150 -4 2 383 c0 211 2
383 3 383 55 2 260 -4 287 -9z"/>
</g>
</svg>
