<svg version="1" xmlns="http://www.w3.org/2000/svg" width="346.667" height="346.667" viewBox="0 0 260.000000 260.000000"><path d="M0 130v130h260V0H0v130zm120-46.5V91H72v31h38v15H72v31h48v16H52V76h68v7.5zm66.9-6c14.5 3.5 28.6 14.5 34.6 27 7.6 16.2 7.1 36.7-1.5 53.5-3.2 6.3-13.5 16.1-20.1 19.4-10.9 5.3-14.5 5.8-42.6 6.3l-26.3.5V76h24.8c18.5 0 26.3.4 31.1 1.5z"/><path d="M151 129.4V168h14.5c12.2 0 15.3-.3 20.2-2.1 7.8-2.9 15.2-10.4 18.3-18.5 4.6-12.2 3.6-28.6-2.3-39.7-3.6-6.8-7.1-10.1-14.7-13.6-4.9-2.2-7-2.5-20.7-2.9l-15.3-.4v38.6z"/></svg>